# xmcd CD database file
#
# Track frame offsets:
#	150
#	89342
#	180615
#
# Disc length: 3745 seconds
#
# Revision: 0
# Processed by: cddbd v1.5.2PL0 Copyright (c) Steve Scherf et al.
# Submitted via: CDex 1.79
#
DISCID=1c0e9f03
DTITLE=Krzysztof Komeda - Aztigmatic in Concert
DYEAR=2006
DGENRE=Jazz
TTITLE0=Astigmatic
TTITLE1=Kattorna
TTITLE2=Svantetic
EXTD=YEAR: 2006
EXTT0=
EXTT1=
EXTT2=
PLAYORDER=
